<svg width="15" height="18" viewBox="0 0 15 18" fill="none" xmlns="http://www.w3.org/2000/svg">
<path d="M1.875 7.5C1.70924 7.5 1.55027 7.56585 1.43306 7.68306C1.31585 7.80027 1.25 7.95924 1.25 8.125V15.625C1.25 15.7908 1.31585 15.9497 1.43306 16.0669C1.55027 16.1842 1.70924 16.25 1.875 16.25H13.125C13.2908 16.25 13.4497 16.1842 13.5669 16.0669C13.6842 15.9497 13.75 15.7908 13.75 15.625V8.125C13.75 7.95924 13.6842 7.80027 13.5669 7.68306C13.4497 7.56585 13.2908 7.5 13.125 7.5H1.875ZM1.875 6.25H13.125C13.6223 6.25 14.0992 6.44754 14.4508 6.79917C14.8025 7.15081 15 7.62772 15 8.125V15.625C15 16.1223 14.8025 16.5992 14.4508 16.9508C14.0992 17.3025 13.6223 17.5 13.125 17.5H1.875C1.37772 17.5 0.900806 17.3025 0.549175 16.9508C0.197544 16.5992 0 16.1223 0 15.625V8.125C0 7.62772 0.197544 7.15081 0.549175 6.79917C0.900806 6.44754 1.37772 6.25 1.875 6.25Z" fill="black"/>
<path d="M7.5 9.375C7.66576 9.375 7.82473 9.44085 7.94194 9.55806C8.05915 9.67527 8.125 9.83424 8.125 10V13.75C8.125 13.9158 8.05915 14.0747 7.94194 14.1919C7.82473 14.3092 7.66576 14.375 7.5 14.375C7.33424 14.375 7.17527 14.3092 7.05806 14.1919C6.94085 14.0747 6.875 13.9158 6.875 13.75V10C6.875 9.83424 6.94085 9.67527 7.05806 9.55806C7.17527 9.44085 7.33424 9.375 7.5 9.375ZM11.25 6.25V5C11.25 4.00544 10.8549 3.05161 10.1517 2.34835C9.44839 1.64509 8.49456 1.25 7.5 1.25C6.50544 1.25 5.55161 1.64509 4.84835 2.34835C4.14509 3.05161 3.75 4.00544 3.75 5V6.25H11.25ZM7.5 0C8.82608 0 10.0979 0.526784 11.0355 1.46447C11.9732 2.40215 12.5 3.67392 12.5 5V7.5H2.5V5C2.5 3.67392 3.02678 2.40215 3.96447 1.46447C4.90215 0.526784 6.17392 0 7.5 0Z" fill="black"/>
</svg>
