<svg viewBox="0 0 15 13" fill="none" xmlns="http://www.w3.org/2000/svg">
<path d="M1.39242 8.40699C0.797472 7.63405 0.5 7.24758 0.5 6.1C0.5 4.95242 0.797472 4.56597 1.39242 3.79303C2.58037 2.24969 4.57268 0.5 7.5 0.5C10.4273 0.5 12.4196 2.24969 13.6076 3.79303C14.2025 4.56597 14.5 4.95242 14.5 6.1C14.5 7.24758 14.2025 7.63405 13.6076 8.40699C12.4196 9.95028 10.4273 11.7 7.5 11.7C4.57268 11.7 2.58037 9.95028 1.39242 8.40699Z" stroke="#0F0F0F"/>
<path d="M9.60002 6.1C9.60002 7.25983 8.65985 8.2 7.50002 8.2C6.34019 8.2 5.40002 7.25983 5.40002 6.1C5.40002 4.94017 6.34019 4 7.50002 4C8.65985 4 9.60002 4.94017 9.60002 6.1Z" stroke="#0F0F0F"/>
</svg>
