<svg width="15" height="14" viewBox="0 0 15 14" fill="none" xmlns="http://www.w3.org/2000/svg">
<path d="M0.897596 0.5L14.1021 13.5M5.91845 5.49318C5.53505 5.88316 5.2991 6.41442 5.2991 7C5.2991 8.19665 6.28444 9.16667 7.49984 9.16667C8.10321 9.16667 8.64988 8.92761 9.04741 8.5405M3.46514 3.13405C2.07184 4.03913 1.01059 5.39951 0.5 7C1.43477 9.93013 4.21528 12.0556 7.49999 12.0556C8.95901 12.0556 10.3186 11.6362 11.4611 10.9133M6.76626 1.98011C7.00761 1.95653 7.2524 1.94444 7.49999 1.94444C10.7848 1.94444 13.5653 4.06988 14.5 7C14.2941 7.64567 13.9984 8.25219 13.6276 8.80556" stroke="black" stroke-linecap="round" stroke-linejoin="round"/>
</svg>
