<svg width="56" height="56" viewBox="0 0 56 56" fill="none" xmlns="http://www.w3.org/2000/svg">
<path d="M28 0C20.9669 0.0408061 14.2035 2.71626 9.04017 7.50012C3.87684 12.284 0.687268 18.83 0.0988044 25.8507C-0.489659 32.8713 1.56558 39.8585 5.86028 45.4379C10.155 51.0172 16.3783 54.7849 23.3062 56V49.9815C19.6208 47.6973 16.5979 44.485 14.5388 40.6651C12.4798 36.8452 11.4567 32.5512 11.5716 28.2116C11.401 23.2961 12.7229 18.4444 15.3627 14.2973C18.0026 10.1502 21.8362 6.9028 26.3572 4.98405C27.4202 4.60758 28.5799 4.60758 29.6429 4.98405C34.1638 6.9028 37.9974 10.1502 40.6373 14.2973C43.2771 18.4444 44.5991 23.2961 44.4285 28.2116C44.5434 32.5512 43.5202 36.8452 41.4612 40.6651C39.4022 44.485 36.3792 47.6973 32.6939 49.9815V56C39.6217 54.7849 45.8451 51.0172 50.1398 45.4379C54.4345 39.8585 56.4897 32.8713 55.9012 25.8507C55.3128 18.83 52.1232 12.284 46.9599 7.50012C41.7965 2.71626 35.0332 0.0408061 28 0Z" fill="#CEA07C"/>
<path d="M28.0029 39.998C32.4212 39.998 36.0029 33.73 36.0029 25.998C36.0029 18.2661 32.4212 11.998 28.0029 11.998C23.5847 11.998 20.0029 18.2661 20.0029 25.998C20.0029 33.73 23.5847 39.998 28.0029 39.998Z" fill="#CEA07C"/>
</svg>
